<svg xmlns="http://www.w3.org/2000/svg" xmlns:xlink="http://www.w3.org/1999/xlink" viewBox="0 0 113.86 113.86"><defs><style>.cls-1{fill:none;}.cls-2{fill:#d71638;}.cls-3{fill:#fff;}.cls-4{clip-path:url(#clip-path);}</style><clipPath id="clip-path"><rect class="cls-1" width="113.86" height="113.86"/></clipPath></defs><title>logo-woodside</title><g id="Layer_2" data-name="Layer 2"><g id="Layer_1-2" data-name="Layer 1"><rect class="cls-2" width="113.86" height="113.86"/><polygon class="cls-3" points="30.14 86.27 27.91 86.27 25.06 99.06 21.34 86.37 21.3 86.27 19.07 86.27 15.48 99.03 12.64 86.38 12.62 86.27 10.28 86.27 14.06 102.85 14.09 102.96 16.59 102.96 20.17 90.06 23.82 102.86 23.85 102.96 26.29 102.96 30.12 86.36 30.14 86.27"/><g class="cls-4"><path class="cls-3" d="M88.81,96.72a5.9,5.9,0,0,1-.75,3.17,2.78,2.78,0,0,1-1,1,3.45,3.45,0,0,1-1.64.36,2.28,2.28,0,0,1-1.34-.39,2.45,2.45,0,0,1-.67-.72,4.59,4.59,0,0,1-.59-1.57,8.73,8.73,0,0,1-.17-1.75A5.38,5.38,0,0,1,83.29,94a2.54,2.54,0,0,1,2.3-1.24,3.24,3.24,0,0,1,1.49.33,2.83,2.83,0,0,1,1.31,1.43,5.41,5.41,0,0,1,.42,2.21m2.24,3.3V86.19H88.86V92a5.08,5.08,0,0,0-1.1-.75,5.45,5.45,0,0,0-2.39-.56,4.85,4.85,0,0,0-2.34.56,4.76,4.76,0,0,0-2.1,2.42,8.24,8.24,0,0,0-.62,3.26,7.76,7.76,0,0,0,1.13,4.22A4.55,4.55,0,0,0,83,102.67a4.71,4.71,0,0,0,2.35.59,5,5,0,0,0,3.53-1.42l0,1.09h2.25l0-.9c0-.63-.09-1.33-.09-2"/><path class="cls-3" d="M36.59,100.81a3.27,3.27,0,0,1-3.06,0,3.45,3.45,0,0,1-1.39-1.64A5.33,5.33,0,0,1,31.69,97a5.11,5.11,0,0,1,.81-2.86,3.1,3.1,0,0,1,1-1,3.2,3.2,0,0,1,3.06,0A3.42,3.42,0,0,1,38,94.76a5.55,5.55,0,0,1,.45,2.2,5.25,5.25,0,0,1-.81,2.86,3.15,3.15,0,0,1-1,1m1-9.57a6,6,0,0,0-5.06,0,5.29,5.29,0,0,0-2.39,2.4A7.3,7.3,0,0,0,29.38,97a6.86,6.86,0,0,0,1.37,4.27,5,5,0,0,0,1.78,1.46,6.09,6.09,0,0,0,5.06,0,5.33,5.33,0,0,0,2.4-2.41A7.27,7.27,0,0,0,40.75,97a6.92,6.92,0,0,0-1.37-4.27,5,5,0,0,0-1.79-1.45"/><path class="cls-3" d="M50.8,97A5.27,5.27,0,0,1,50,99.89a3.12,3.12,0,0,1-4.09,1,3.42,3.42,0,0,1-1.4-1.64,5.62,5.62,0,0,1-.45-2.2,5.27,5.27,0,0,1,.81-2.86,3.15,3.15,0,0,1,1-1,3,3,0,0,1,1.53-.38,3.1,3.1,0,0,1,1.53.38,3.48,3.48,0,0,1,1.39,1.65A5.51,5.51,0,0,1,50.8,97M50,91.3a6.07,6.07,0,0,0-5.05,0,5.33,5.33,0,0,0-2.4,2.41A7.27,7.27,0,0,0,41.74,97a6.92,6.92,0,0,0,1.37,4.27,4.91,4.91,0,0,0,1.79,1.45,6,6,0,0,0,5.05,0,5.26,5.26,0,0,0,2.4-2.4A7.33,7.33,0,0,0,53.11,97a7,7,0,0,0-1.37-4.28A5.12,5.12,0,0,0,50,91.3"/><path class="cls-3" d="M62.61,96.76a5.84,5.84,0,0,1-.76,3.18,2.72,2.72,0,0,1-1,1,3.53,3.53,0,0,1-1.65.37,2.24,2.24,0,0,1-1.34-.4,2.41,2.41,0,0,1-.67-.71,4.73,4.73,0,0,1-.59-1.58,8.7,8.7,0,0,1-.17-1.74,5.35,5.35,0,0,1,.68-2.8,2.53,2.53,0,0,1,.89-.89,2.75,2.75,0,0,1,1.41-.34,3.29,3.29,0,0,1,1.48.32,2.9,2.9,0,0,1,1.31,1.44,5.4,5.4,0,0,1,.43,2.2m2.24,3.31V86.24h-2.2v5.82a4.85,4.85,0,0,0-1.1-.75,5.32,5.32,0,0,0-2.39-.56,4.85,4.85,0,0,0-2.34.56,4.73,4.73,0,0,0-2.1,2.41A8.43,8.43,0,0,0,54.1,97a7.9,7.9,0,0,0,1.13,4.21,4.76,4.76,0,0,0,1.58,1.52,4.71,4.71,0,0,0,2.35.59,4.92,4.92,0,0,0,3.53-1.43l0,1.1H65l0-.78c0-.66-.09-1.41-.09-2.13"/><path class="cls-3" d="M73.6,96.3c-.93-.32-1.77-.53-2.52-.72-.49-.12-.9-.22-1.26-.33a2.57,2.57,0,0,1-.93-.46.68.68,0,0,1-.18-.26.82.82,0,0,1-.07-.37,1.13,1.13,0,0,1,.16-.61,1.48,1.48,0,0,1,.76-.56,3.61,3.61,0,0,1,1.21-.19,3.3,3.3,0,0,1,1.64.35,1.4,1.4,0,0,1,.49.44,1.45,1.45,0,0,1,.23.68l0,.38h2.31l0-.45A3.8,3.8,0,0,0,75,92.56a3.29,3.29,0,0,0-1.71-1.43,6.58,6.58,0,0,0-2.35-.38,5.87,5.87,0,0,0-3,.75,3.08,3.08,0,0,0-1.53,2.75,2.88,2.88,0,0,0,.37,1.48,2.72,2.72,0,0,0,.67.77,4.38,4.38,0,0,0,1.35.71c.49.17,1,.3,1.52.43l.33.07a10,10,0,0,1,2.05.57,2,2,0,0,1,.65.48,1.22,1.22,0,0,1,.22.71,1.48,1.48,0,0,1-.21.79,1.84,1.84,0,0,1-.92.74,3.89,3.89,0,0,1-1.41.26,3.79,3.79,0,0,1-1.87-.4,1.49,1.49,0,0,1-.56-.52,1.66,1.66,0,0,1-.26-.83l0-.39H66v.43a3.62,3.62,0,0,0,.46,1.75,3.78,3.78,0,0,0,1.85,1.56,6.25,6.25,0,0,0,2.37.45,6.39,6.39,0,0,0,3.5-1,3.64,3.64,0,0,0,1.2-1.27,3.55,3.55,0,0,0,.47-1.82,3.06,3.06,0,0,0-.6-1.83,3.28,3.28,0,0,0-1.6-1.14"/><rect class="cls-3" x="76.82" y="86.27" width="2.42" height="2.49"/><rect class="cls-3" x="76.93" y="91.12" width="2.2" height="11.89"/><path class="cls-3" d="M95.82,93.73a2.81,2.81,0,0,1,.93-.73A3.12,3.12,0,0,1,98,92.73,3.68,3.68,0,0,1,99.4,93a2.77,2.77,0,0,1,1.32,1.17,4.22,4.22,0,0,1,.5,1.49H95a4.1,4.1,0,0,1,.86-1.91m5.36,5.18a3,3,0,0,1-1,1.62,2.88,2.88,0,0,1-1.84.66,3.76,3.76,0,0,1-1.59-.31,2.88,2.88,0,0,1-1.41-1.39,4.76,4.76,0,0,1-.46-1.8h8.7v-.42a7.68,7.68,0,0,0-1.24-4.62,4.55,4.55,0,0,0-1.75-1.45A6.16,6.16,0,0,0,98,90.68a5.42,5.42,0,0,0-2.4.54,5.25,5.25,0,0,0-2.31,2.39A7.53,7.53,0,0,0,92.55,97a7.22,7.22,0,0,0,1.29,4.31,4.73,4.73,0,0,0,1.69,1.43,5.22,5.22,0,0,0,2.39.54,5.89,5.89,0,0,0,3.56-1,5.52,5.52,0,0,0,2-3.15l0-.16Z"/><path class="cls-3" d="M90.55,24.42c-3.68-3.09-16,7.92-21.11,12.81,1.33,9.39-.43,16.92-5.12,24.12a19.65,19.65,0,0,1-1.58,2.11c5,.63,12.56-4,21.71-16.83,5.09-7.19,10.5-18.52,6.1-22.21"/><path class="cls-3" d="M49.87,69.13c-7.68-1.52-9.13-10-8.68-18l0-.82c-6.43-5-15.24-10.86-18.08-8.18-4.37,4.12,2,15.65,7.75,22.85,13,16.26,22.6,18.92,27.18,14.53,1.51-1.45,2.75-5.29-.7-11.74l-.18.1a12.4,12.4,0,0,1-7.32,1.31"/><path class="cls-3" d="M69.44,37.23h0c-1.77-10.8-8.93-23.07-14.58-22.78-5.91.3-13,21.48-13.64,35.81,3.63,2.83,6.51,5.39,7.11,6a50,50,0,0,1,9,11.47,17.08,17.08,0,0,0,5.37-4.26A6.31,6.31,0,0,1,59.37,62c-2.27-1.93-4.26-9,8-22.65.27-.29,1-1.06,2.09-2.1"/></g></g></g></svg>